<?xml version="1.0" encoding="utf-8"?>
<!-- Generator: Adobe Illustrator 22.0.1, SVG Export Plug-In . SVG Version: 6.00 Build 0)  -->
<svg version="1.1" id="Layer_1" xmlns="http://www.w3.org/2000/svg" xmlns:xlink="http://www.w3.org/1999/xlink" x="0px" y="0px"
	 viewBox="0 0 800 800" style="enable-background:new 0 0 800 800;" xml:space="preserve">
<style type="text/css">
	.st0{fill:#BC0077;}
</style>
<title>Artboard 1</title>
<g id="Layer_2_1_">
	<path class="st0" d="M220.8,139.6L220.8,139.6c6.1,17.1,25,26.1,42.1,20.1l127.2-45.2c17.1-6.1,26.1-25,20-42.1l0,0
		c-6.2-17.1-25-26.1-42.1-20L240.8,97.5C223.7,103.6,214.8,122.4,220.8,139.6z"/>
	<path class="st0" d="M566.5,437.1L566.5,437.1c3.1-17.9-9-35-26.9-38.1l-133-23c-17.9-3.1-35,9-38.1,26.9l0,0
		c-3.1,17.9,9,35,26.9,38.1l133,23C546.3,467.1,563.4,455.1,566.5,437.1z"/>
	<path class="st0" d="M320,646.5l130.9,32.9c17.7,4.4,35.6-6.3,40-24l0,0c4.4-17.7-6.4-35.5-24-40l-130.9-32.9
		c-17.7-4.3-35.5,6.4-40,24l0,0C291.7,624.2,302.4,642,320,646.5z"/>
	<path class="st0" d="M453.8,97.4l4.9-2.8c14.4-8.3,32.9-3.4,41.2,11l70.3,121.8c8.3,14.4,3.4,32.9-11,41.2l-4.9,2.8
		c-14.4,8.3-32.9,3.4-41.2-11l-70.3-121.8C434.4,124.1,439.4,105.7,453.8,97.4z"/>
	<path class="st0" d="M578.5,658.1l23-133c3.1-17.9-9-35-26.9-38.1l0,0c-17.9-3.1-35,9-38.2,26.9l-23,133c-3.1,18,9,35,26.9,38.2
		l0,0C558.3,688,575.3,676,578.5,658.1z"/>
	<path class="st0" d="M120.4,544.2L120.4,544.2c17.1,6.3,36-2.4,42.4-19.4L210,398.2c6.3-17.1-2.4-36-19.4-42.4l0,0
		c-17.1-6.3-36,2.4-42.4,19.4L101,501.7C94.7,518.8,103.4,537.8,120.4,544.2z"/>
	<path class="st0" d="M58,263.5L58,263.5c-4.4,17.7,6.3,35.6,24,40L213,336.4c17.7,4.4,35.5-6.4,40-24l0,0c4.4-17.7-6.3-35.6-24-40
		L98.1,239.5C80.4,235.1,62.5,245.8,58,263.5z"/>
	<path class="st0" d="M554.9,740.8L554.9,740.8c-0.8-18.2-16.1-32.3-34.3-31.6l-134.9,5.6c-18.2,0.8-32.3,16.1-31.6,34.3l0,0
		c0.8,18.2,16.1,32.3,34.3,31.6l134.9-5.6C541.5,774.4,555.6,759,554.9,740.8z"/>
	<path class="st0" d="M180.4,760.7l131.3-31.2c17.7-4.3,28.6-22,24.5-39.7l0,0c-4.2-17.7-22-28.7-39.7-24.5l-131.4,31.2
		c-17.7,4.3-28.7,22.1-24.5,39.8l0,0C145,753.9,162.7,764.8,180.4,760.7z"/>
	<path class="st0" d="M655,563L655,563c18.2,0,33,14.8,33,33v135c0,18.2-14.8,33-33,33l0,0c-18.2,0-33-14.8-33-33V596
		C622,577.8,636.8,563,655,563z"/>
	<path class="st0" d="M747,578.7L747,578.7c15.1-10.1,19.3-30.5,9.3-45.7l-74.6-112.5c-10.1-15.1-30.5-19.3-45.7-9.3l0,0
		c-15.1,10.1-19.3,30.5-9.3,45.7l74.6,112.5C711.4,584.6,731.8,588.8,747,578.7z"/>
	<path class="st0" d="M694.4,117.2L694.4,117.2c17.1,6.3,36-2.4,42.4-19.4L773.3,0h-70.4L675,74.7
		C668.7,91.8,677.4,110.8,694.4,117.2z"/>
	<path class="st0" d="M261.4,406.2c11.5,14.1,32.2,16.3,46.4,4.9l104.9-85c14.1-11.5,16.3-32.2,4.9-46.4l0,0
		c-11.5-14.1-32.2-16.3-46.4-4.9l-104.9,85C252.1,371.3,250,392,261.4,406.2z"/>
	<path class="st0" d="M302.5,459.7L302.5,459.7c-9.1,15.8-3.7,35.9,12.1,45.1l116.9,67.5c15.8,9.1,35.9,3.7,45.1-12.1l0,0
		c9.1-15.8,3.7-35.9-12.1-45.1l-116.9-67.5C331.8,438.6,311.6,444,302.5,459.7z"/>
	<path class="st0" d="M177.6,660.7l100.1-90.5c13.5-12.3,14.5-33.1,2.3-46.6l0,0c-12.2-13.5-33.1-14.6-46.6-2.4l-100.1,90.5
		c-13.5,12.3-14.5,33.1-2.3,46.6l0,0C143.2,671.9,164,672.9,177.6,660.7z"/>
	<path class="st0" d="M260.8,253.2l134.6-10.6c18.1-1.5,31.7-17.3,30.3-35.5l0,0c-1.5-18.1-17.3-31.7-35.5-30.3l-134.6,10.6
		c-18.1,1.5-31.7,17.3-30.3,35.5l0,0C226.8,241,242.6,254.6,260.8,253.2z"/>
	<path class="st0" d="M64.3,183.4L64.3,183.4c-10.1-15.1-30.5-19.3-45.7-9.3L0,186.4v79.2l55-36.5C70.1,219.1,74.3,198.6,64.3,183.4
		z"/>
	<path class="st0" d="M722.5,631.7L722.5,631.7c-9.1,15.8-3.7,35.9,12.1,45.1l65.5,37.8v-76.2l-32.5-18.7
		C751.8,610.6,731.6,616,722.5,631.7z"/>
	<path class="st0" d="M249.8,789l-134.8-8c-13.5-0.8-26.1,6.7-31.8,18.9h189.2C266.6,793.5,258.5,789.6,249.8,789z"/>
	<path class="st0" d="M783.8,493.4L800,539v-86.1C785.2,460.5,778.3,477.8,783.8,493.4z"/>
	<path class="st0" d="M604.5,776.2l-99.8,23.7h139.3C639.5,782.7,622,772.2,604.5,776.2z"/>
	<path class="st0" d="M764.6,728.8L764.6,728.8c-17.1-6.3-36,2.4-42.4,19.4L702.8,800h70.4l10.7-28.8
		C790.3,754.2,781.6,735.2,764.6,728.8z"/>
	<path class="st0" d="M703.7,414.2L703.7,414.2c4.3,17.7,22,28.6,39.7,24.5l56.6-13.5v-67.8l-71.8,17
		C710.5,378.7,699.6,396.5,703.7,414.2z"/>
	<path class="st0" d="M651.7,378L651.7,378c6.3-17.1-2.4-36-19.4-42.4l-126.5-47.1c-17.1-6.3-36,2.4-42.4,19.4l0,0
		c-6.3,17.1,2.4,36,19.4,42.4l126.5,47.1C626.4,403.7,645.3,395.1,651.7,378z"/>
	<path class="st0" d="M696.7,294.5L696.7,294.5c10.1,15.1,30.5,19.3,45.7,9.3l57.5-38.1v-79.2l-94,62.3
		C690.9,258.9,686.7,279.3,696.7,294.5z"/>
	<path class="st0" d="M797.5,62.7c-6.7,11.6-5.7,26.1,2.5,36.7V59C799.1,60.2,798.2,61.4,797.5,62.7z"/>
	<path class="st0" d="M80.2,12c-1,18.2,12.8,33.8,31,34.9l134.8,8c18.2,1,33.8-12.8,34.9-31l0,0c0.5-8.8-2.5-17.4-8.4-24H83.3
		C81.5,3.8,80.4,7.9,80.2,12z"/>
	<path class="st0" d="M448.7,47.2L448.7,47.2c4.3,17.7,22,28.6,39.7,24.5l131.4-31.2c17.7-4.3,28.6-22,24.5-39.8l0,0
		c-0.1-0.3-0.1-0.5-0.2-0.8H504.8l-31.6,7.5C455.5,11.7,444.6,29.5,448.7,47.2z"/>
	<path class="st0" d="M643,115L643,115c18.2,0,33,14.8,33,33v135c0,18.2-14.8,33-33,33l0,0c-18.2,0-33-14.8-33-33V148
		C610,129.8,624.8,115,643,115z"/>
	<path class="st0" d="M71.1,640.7L71.1,640.7c17.1-6.2,26.1-25,20-42.1L46,471.3c-6.1-17.1-25-26.1-42.1-20.1l0,0
		c-1.3,0.5-2.6,1-3.9,1.7V539l29,81.6C35.1,637.8,54,646.7,71.1,640.7z"/>
	<path class="st0" d="M9.5,107.8l116.9,67.5c15.8,9.1,35.9,3.7,45.1-12.1l0,0c9.1-15.8,3.7-35.9-12.1-45.1L42.5,50.6
		C28.3,42.5,10.1,46,0,59v40.5C2.6,102.8,5.8,105.7,9.5,107.8z"/>
	<path class="st0" d="M96.5,732.2L96.5,732.2c9.1-15.8,3.7-35.9-12.1-45.1L0,638.4v76.2l51.5,29.7C67.3,753.4,87.4,748,96.5,732.2z"
		/>
	<path class="st0" d="M99.3,367.7L99.3,367.7c-4.2-17.7-22-28.7-39.7-24.5L0,357.4v67.8l74.8-17.8
		C92.5,403.2,103.4,385.5,99.3,367.7z"/>
</g>
</svg>
