<svg id="Layer_1" data-name="Layer 1" xmlns="http://www.w3.org/2000/svg" viewBox="0 0 800 800"><defs><style>.cls-1{fill:#3d00ff;}</style></defs><title>Artboard 2</title><polygon class="cls-1" points="282.34 524.37 166.42 533.19 232.02 629.17 282.34 524.37"/><polygon class="cls-1" points="223.19 344.24 304.58 261.23 192 232.25 223.19 344.24"/><polygon class="cls-1" points="68.95 449.58 178.59 488.21 157.23 373.94 68.95 449.58"/><polygon class="cls-1" points="301.34 354.41 203.9 417.82 307.53 470.5 301.34 354.41"/><polygon class="cls-1" points="101.51 217.11 217.43 208.29 151.83 112.32 101.51 217.11"/><polygon class="cls-1" points="61.16 368.36 174.25 341.41 94.36 256.95 61.16 368.36"/><polygon class="cls-1" points="421.41 500.89 310.44 535.53 395.93 614.31 421.41 500.89"/><polygon class="cls-1" points="331.23 607.94 242.95 683.58 352.6 722.21 331.23 607.94"/><polygon class="cls-1" points="125.92 636.17 100.44 749.6 211.41 714.96 125.92 636.17"/><polygon class="cls-1" points="145.12 611.94 92.61 508.23 29.05 605.56 145.12 611.94"/><polygon class="cls-1" points="455.6 341.21 434.23 226.94 345.95 302.58 455.6 341.21"/><polygon class="cls-1" points="720.23 79.94 631.95 155.58 741.6 194.21 720.23 79.94"/><polygon class="cls-1" points="520.37 244.3 612.45 173.34 504.96 129.08 520.37 244.3"/><polygon class="cls-1" points="674.51 333.49 682.31 217.5 577.96 268.74 674.51 333.49"/><polygon class="cls-1" points="543.23 602.38 657.09 625.84 620.47 515.5 543.23 602.38"/><polygon class="cls-1" points="594.73 389.55 647.24 493.26 710.8 395.92 594.73 389.55"/><polygon class="cls-1" points="389.37 87.95 356.17 199.36 469.25 172.41 389.37 87.95"/><polygon class="cls-1" points="604.41 356.95 518.92 278.18 493.44 391.6 604.41 356.95"/><polygon class="cls-1" points="371.37 357.12 371.37 473.37 472.04 415.24 371.37 357.12"/><polygon class="cls-1" points="260.62 219.54 348.9 143.91 239.26 105.28 260.62 219.54"/><polygon class="cls-1" points="519.75 572.98 588.3 479.09 472.72 466.66 519.75 572.98"/><polygon class="cls-1" points="768.44 164.53 800.01 193.62 800.01 154.68 768.44 164.53"/><polygon class="cls-1" points="0 80.62 55.59 100.21 36.86 0 17.82 0 0.01 15.26 0 80.62"/><polygon class="cls-1" points="0 193.61 53.93 243.31 79.41 129.89 0 154.68 0 193.61"/><polygon class="cls-1" points="0 329.12 33.45 303.35 0 289.57 0 329.12"/><polygon class="cls-1" points="0 487.93 36.53 506.5 30.34 390.41 0 410.16 0 487.93"/><polygon class="cls-1" points="0 581.27 7.41 578.96 0 572.13 0 581.27"/><polygon class="cls-1" points="0.01 674.73 0 725.76 56.48 758.37 56.48 642.12 0.01 674.73"/><polygon class="cls-1" points="17.82 800 36.86 800 34.23 785.94 17.82 800"/><polygon class="cls-1" points="324.6 73.21 310.91 0 255.31 0 214.95 34.58 324.6 73.21"/><polygon class="cls-1" points="111.69 800 139.21 800 120.64 776.92 111.69 800"/><polygon class="cls-1" points="193.51 67.5 139.21 0 111.69 0 78.63 85.31 193.51 67.5"/><polygon class="cls-1" points="639.84 800 700.73 800 659.64 748.92 639.84 800"/><polygon class="cls-1" points="455.72 0 396.29 0 422.24 51.26 455.72 0"/><polygon class="cls-1" points="543.71 800 557.18 800 552.1 788.51 543.71 800"/><polygon class="cls-1" points="255.31 800 310.91 800 303.23 758.94 255.31 800"/><polygon class="cls-1" points="369.73 747.55 396.29 800 455.72 800 485.8 753.92 369.73 747.55"/><polygon class="cls-1" points="593.48 650.18 501.4 721.14 608.89 765.41 593.48 650.18"/><polygon class="cls-1" points="800.01 674.73 755.81 700.24 800.01 725.76 800.01 674.73"/><polygon class="cls-1" points="721.92 500.18 696.44 613.6 800.01 581.27 800.01 572.13 721.92 500.18"/><polygon class="cls-1" points="687.61 634.23 624.05 731.56 740.12 737.94 687.61 634.23"/><polygon class="cls-1" points="445.49 582.73 428 697.66 536.28 655.34 445.49 582.73"/><polygon class="cls-1" points="732.51 39.49 700.73 0 639.84 0 617.63 57.31 732.51 39.49"/><polygon class="cls-1" points="732.9 453.82 800.01 487.93 800.01 410.15 732.9 453.82"/><polygon class="cls-1" points="599.13 94.82 557.18 0 543.71 0 483.55 82.39 599.13 94.82"/><polygon class="cls-1" points="745.95 61.58 800.01 80.62 800.01 15.26 745.95 61.58"/><polygon class="cls-1" points="725.96 259.08 741.37 374.3 800.01 329.12 800.01 289.57 725.96 259.08"/></svg>