<svg id="Layer_1" data-name="Layer 1" xmlns="http://www.w3.org/2000/svg" viewBox="0 0 800 800"><defs><style>.cls-1{fill:#cf775f;}</style></defs><title>Artboard 7</title><circle class="cls-1" cx="579.57" cy="264.77" r="60"/><circle class="cls-1" cx="499.57" cy="667.27" r="60"/><circle class="cls-1" cx="499.57" cy="132.27" r="60"/><circle class="cls-1" cx="579.57" cy="534.77" r="60"/><circle class="cls-1" cx="339.57" cy="132.27" r="60"/><circle class="cls-1" cx="99.57" cy="264.77" r="60"/><circle class="cls-1" cx="419.57" cy="264.77" r="60"/><circle class="cls-1" cx="179.57" cy="132.27" r="60"/><circle class="cls-1" cx="499.57" cy="402.27" r="60"/><circle class="cls-1" cx="259.57" cy="264.77" r="60"/><circle class="cls-1" cx="179.57" cy="667.27" r="60"/><circle class="cls-1" cx="419.57" cy="534.77" r="60"/><path class="cls-1" d="M739.57,739.77a60,60,0,0,0-60,60c0,.08,0,.15,0,.23h120v-.23A60,60,0,0,0,739.57,739.77Z"/><path class="cls-1" d="M739.57,59.77A60,60,0,0,0,799.57,0h-120A60,60,0,0,0,739.57,59.77Z"/><path class="cls-1" d="M159.57,799.77a60,60,0,0,0-120,0c0,.08,0,.15,0,.23h120Z"/><circle class="cls-1" cx="339.57" cy="667.27" r="60"/><circle class="cls-1" cx="179.57" cy="402.27" r="60"/><circle class="cls-1" cx="339.57" cy="402.27" r="60"/><circle class="cls-1" cx="259.57" cy="534.77" r="60"/><path class="cls-1" d="M79.57,667.27A60,60,0,0,0,0,610.55V724a60,60,0,0,0,79.57-56.72Z"/><path class="cls-1" d="M79.57,402.27A60,60,0,0,0,0,345.55V459a60,60,0,0,0,79.57-56.72Z"/><path class="cls-1" d="M759.57,667.27A60,60,0,0,0,800,724V610.55A60,60,0,0,0,759.57,667.27Z"/><path class="cls-1" d="M79.57,132.27A60,60,0,0,0,0,75.55V189a60,60,0,0,0,79.57-56.72Z"/><path class="cls-1" d="M99.57,59.77A60,60,0,0,0,159.57,0h-120A60,60,0,0,0,99.57,59.77Z"/><path class="cls-1" d="M759.57,402.27A60,60,0,0,0,800,459V345.55A60,60,0,0,0,759.57,402.27Z"/><path class="cls-1" d="M759.57,132.27A60,60,0,0,0,800,189V75.55A60,60,0,0,0,759.57,132.27Z"/><circle class="cls-1" cx="740" cy="264.83" r="60"/><circle class="cls-1" cx="740" cy="534.83" r="60"/><path class="cls-1" d="M259.57,59.77A60,60,0,0,0,319.57,0h-120A60,60,0,0,0,259.57,59.77Z"/><circle class="cls-1" cx="659.57" cy="402.27" r="60"/><circle class="cls-1" cx="659.57" cy="667.27" r="60"/><path class="cls-1" d="M419.57,59.77A60,60,0,0,0,479.57,0h-120A60,60,0,0,0,419.57,59.77Z"/><path class="cls-1" d="M639.57,799.77a60,60,0,0,0-120,0c0,.08,0,.15,0,.23h120Z"/><path class="cls-1" d="M319.57,799.77a60,60,0,0,0-120,0c0,.08,0,.15,0,.23h120Z"/><path class="cls-1" d="M479.57,799.77a60,60,0,0,0-120,0c0,.08,0,.15,0,.23h120Z"/><circle class="cls-1" cx="99.57" cy="534.77" r="60"/><path class="cls-1" d="M579.57,59.77A60,60,0,0,0,639.57,0h-120A60,60,0,0,0,579.57,59.77Z"/><circle class="cls-1" cx="659.57" cy="132.27" r="60"/></svg>